<?xml version="1.0" encoding="utf-8"?>
<!-- Generator: Adobe Illustrator 26.0.1, SVG Export Plug-In . SVG Version: 6.00 Build 0)  -->
<svg version="1.1" id="圖層_1" xmlns="http://www.w3.org/2000/svg" xmlns:xlink="http://www.w3.org/1999/xlink" x="0px" y="0px"
	 viewBox="0 0 28 28" style="enable-background:new 0 0 28 28;" xml:space="preserve">
<style type="text/css">
	.st0{fill:#009E96;}
	.st1{fill:none;stroke:#FFFFFF;stroke-width:1.2809;stroke-miterlimit:10;}
	.st2{fill:none;stroke:#FFFFFF;stroke-width:1.2809;stroke-linecap:round;stroke-miterlimit:10;}
	.st3{fill:#40B6B0;}
	.st4{fill:#80CFCB;}
	.st5{fill:#BFE7E5;}
	.st6{fill:#FFFFFF;}
	.st7{fill:none;stroke:#009E96;stroke-width:0.5;stroke-miterlimit:10;}
	.st8{fill:none;stroke:#009E96;stroke-linecap:round;stroke-miterlimit:10;}
</style>
<g>
	<path class="st0" d="M23.4,6.5c-0.1-0.3-0.4-0.6-0.7-0.8c-0.7-0.3-1.6-0.1-1.9,0.6l-0.3,0.6l0,0l-4.9,9.2l0,0l-0.7,1.4
		c-0.6,1.2-0.9,2.5-0.7,3.8l-0.6,1.1l0.5,0.3l0.6-1.1c1.2-0.7,2.2-1.6,2.8-2.8l1-1.9l0,0l4.1-7.8c0.2,0.1,0.2,0.3,0.1,0.4L20.8,13
		l0.5,0.2l1.9-3.5c0.2-0.4,0-1-0.4-1.2L23,8.1l0,0l0.1-0.2l0.1-0.3l0,0l0-0.1C23.5,7.2,23.5,6.8,23.4,6.5z M16.9,18.5
		c-0.5,1-1.3,1.8-2.2,2.4c-0.1-1.1,0.2-2.2,0.7-3.1l0.7-1.4l0.8,0.4l0.8,0.4L16.9,18.5z M22.8,7.3L22.8,7.3l-1.6-0.7l0-0.1
		c0.1-0.2,0.3-0.3,0.5-0.4c0.2-0.1,0.5-0.1,0.7,0c0.2,0.1,0.4,0.3,0.4,0.5C23,6.9,22.9,7.1,22.8,7.3z"/>
	<polygon class="st0" points="9.7,5.8 9.7,9.1 6.8,9.1 	"/>
	<polygon class="st0" points="18.7,19.4 18.7,22.9 5.6,22.9 5.6,9.3 9,5.1 18.7,5.1 18.7,8.9 19.8,6.7 19.8,4 8.5,4 4.5,8.9 4.5,24 
		19.8,24 19.8,17.3 	"/>
</g>
</svg>
