<?xml version="1.0" encoding="utf-8"?>
<!-- Generator: Adobe Illustrator 26.0.1, SVG Export Plug-In . SVG Version: 6.00 Build 0)  -->
<svg version="1.1" id="圖層_1" xmlns="http://www.w3.org/2000/svg" xmlns:xlink="http://www.w3.org/1999/xlink" x="0px" y="0px"
	 viewBox="0 0 28 28" style="enable-background:new 0 0 28 28;" xml:space="preserve">
<style type="text/css">
	.st0{fill:#009E96;}
	.st1{fill:none;stroke:#FFFFFF;stroke-width:1.2809;stroke-miterlimit:10;}
	.st2{fill:none;stroke:#FFFFFF;stroke-width:1.2809;stroke-linecap:round;stroke-miterlimit:10;}
	.st3{fill:#40B6B0;}
	.st4{fill:#80CFCB;}
	.st5{fill:#BFE7E5;}
	.st6{fill:#FFFFFF;}
	.st7{fill:none;stroke:#009E96;stroke-width:0.5;stroke-miterlimit:10;}
	.st8{fill:none;stroke:#009E96;stroke-linecap:round;stroke-miterlimit:10;}
</style>
<g>
	<g>
		<path class="st0" d="M14.2,25.5l-2.1-6.2l-5.5,3.6L9,16.7l-6.5-0.8l5.7-3.2L3.8,7.9l6.4,1.3L9.8,2.6l4.1,5.1l3.9-5.3l-0.1,6.6
			L24,7.6l-4.3,5l5.8,3l-6.4,1l2.5,6.1l-5.6-3.4L14.2,25.5z M12.4,18.2l1.7,5l1.5-5l4.5,2.7l-2-4.9l5.2-0.8l-4.6-2.4l3.4-4L16.9,10
			L17,4.7l-3.1,4.2l-3.3-4.1l0.3,5.3l-5.1-1l3.6,3.9l-4.6,2.5l5.2,0.6L8.1,21L12.4,18.2z"/>
	</g>
	<polygon class="st0" points="13.4,9.9 11.3,14.7 13.4,14.7 11.3,18 16.5,13.5 14,13.5 16.5,9.9 	"/>
</g>
</svg>
