<?xml version="1.0" encoding="utf-8"?>
<!-- Generator: Adobe Illustrator 26.0.1, SVG Export Plug-In . SVG Version: 6.00 Build 0)  -->
<svg version="1.1" id="圖層_1" xmlns="http://www.w3.org/2000/svg" xmlns:xlink="http://www.w3.org/1999/xlink" x="0px" y="0px"
	 viewBox="0 0 28 28" style="enable-background:new 0 0 28 28;" xml:space="preserve">
<style type="text/css">
	.st0{fill:#009E96;}
	.st1{fill:none;stroke:#FFFFFF;stroke-width:1.2809;stroke-miterlimit:10;}
	.st2{fill:none;stroke:#FFFFFF;stroke-width:1.2809;stroke-linecap:round;stroke-miterlimit:10;}
	.st3{fill:#40B6B0;}
	.st4{fill:#80CFCB;}
	.st5{fill:#BFE7E5;}
	.st6{fill:#FFFFFF;}
	.st7{fill:none;stroke:#009E96;stroke-width:0.5;stroke-miterlimit:10;}
	.st8{fill:none;stroke:#009E96;stroke-linecap:round;stroke-miterlimit:10;}
</style>
<g>
	<g>
		<g>
			<g>
				<path class="st0" d="M15.2,10.9c-0.1-0.2-0.3-0.4-0.5-0.6L15,9.7l-2.2-1.1l-0.3,0.7c-0.5-0.1-1,0-1.5,0.1l-0.4-0.6l-2.1,1.3
					l0.4,0.6c-0.3,0.4-0.5,0.9-0.7,1.3l-0.7,0l0.2,2.4l0.7,0c0.1,0.2,0.2,0.4,0.4,0.7c0.1,0.2,0.3,0.4,0.5,0.6l-0.3,0.7l2.2,1.1
					l0.3-0.7c0.5,0.1,1,0,1.5-0.1l0.4,0.6l2.1-1.3L15,15.3c0.3-0.4,0.5-0.9,0.7-1.3l0.7,0l-0.2-2.4l-0.7,0
					C15.4,11.4,15.3,11.2,15.2,10.9z M13.2,14.8c-1,0.6-2.3,0.4-3-0.6s-0.4-2.3,0.6-2.9c1-0.6,2.3-0.4,3,0.6S14.2,14.1,13.2,14.8z"
					/>
			</g>
		</g>
		<g>
			<g>
				<path class="st0" d="M20.8,17.2c0-0.2,0-0.3,0-0.5l0.5-0.2L20.8,15l-0.5,0.2c-0.2-0.3-0.5-0.5-0.7-0.6l0.1-0.5l-1.6-0.3L18,14.2
					c-0.3,0-0.7,0.1-0.9,0.3l-0.4-0.3l-1.1,1.2l0.4,0.3c-0.1,0.1-0.1,0.3-0.1,0.5s0,0.3,0,0.5l-0.5,0.2l0.5,1.5l0.5-0.2
					c0.2,0.3,0.5,0.5,0.7,0.6L17,19.3l1.6,0.3l0.1-0.5c0.3,0,0.7-0.1,0.9-0.3l0.4,0.3l1.1-1.2l-0.4-0.3
					C20.8,17.5,20.8,17.3,20.8,17.2z M18.1,18c-0.8-0.2-1.3-0.9-1.1-1.6c0.2-0.7,0.9-1.2,1.7-1.1c0.8,0.2,1.3,0.9,1.1,1.6
					S18.8,18.2,18.1,18z"/>
			</g>
		</g>
	</g>
	<g>
		<path class="st0" d="M13.8,24c-1.7,0-3.4-0.4-5-1.2c-2.5-1.3-4.4-3.5-5.2-6.1c-0.4-1.1-0.5-2.3-0.5-3.4l-2.7,0.2l1.2-0.7
			c1.3-0.8,2.6-2.3,3.3-3.3l0.6-0.8l0.1,0.9c0.1,1.3,0.5,3.2,1.1,4.5l0.6,1.2l-1.8-1.2c0,0.6,0.2,1.3,0.4,1.9
			c0.4,1.3,1.1,2.4,2.1,3.3l-0.5,0.5c-1-1-1.8-2.3-2.2-3.6c-0.3-0.9-0.4-1.8-0.4-2.8l0-0.7l0.8,0.5c-0.3-0.9-0.5-1.9-0.6-2.7
			c-0.6,0.7-1.3,1.4-2,2l0.9-0.1l0,0.4c-0.1,1.2,0,2.4,0.4,3.6c0.8,2.5,2.5,4.5,4.9,5.7c1.4,0.7,3,1.1,4.7,1.1c1,0,2-0.1,2.9-0.4
			l0.2,0.7C16,23.8,14.9,24,13.8,24z"/>
	</g>
	<g>
		<path class="st0" d="M22.6,19.1l-0.1-0.9c-0.2-1.3-0.6-3.2-1.3-4.5l-0.6-1.2l1.8,1.2c-0.1-0.6-0.2-1.3-0.4-1.9
			c-0.4-1.3-1.2-2.4-2.2-3.3c-0.1-0.1-0.2-0.4,0-0.5c0.1-0.1,0.4-0.2,0.5,0c1.1,1,1.9,2.2,2.4,3.6c0.3,0.9,0.5,1.8,0.5,2.8l0,0.7
			l-0.8-0.5c0.3,0.9,0.6,1.9,0.7,2.7c0.5-0.7,1.2-1.5,1.9-2.1l-0.9,0.1l0-0.4c0-1.2-0.1-2.4-0.5-3.5c-0.9-2.5-2.7-4.4-5.1-5.6
			c-1.5-0.7-3.1-1-4.7-1c-1,0-2,0.2-2.9,0.5c-0.2,0.1-0.4,0-0.5-0.2c-0.1-0.2,0-0.4,0.2-0.4c1-0.3,2.1-0.5,3.1-0.6
			c1.7-0.1,3.5,0.3,5,1c2.6,1.2,4.5,3.3,5.4,6c0.4,1.1,0.6,2.2,0.6,3.4l2.6-0.3l-1.1,0.8c-1.2,0.8-2.5,2.4-3.2,3.4L22.6,19.1z"/>
	</g>
</g>
</svg>
