<?xml version="1.0" encoding="utf-8"?>
<!-- Generator: Adobe Illustrator 26.0.1, SVG Export Plug-In . SVG Version: 6.00 Build 0)  -->
<svg version="1.1" id="圖層_1" xmlns="http://www.w3.org/2000/svg" xmlns:xlink="http://www.w3.org/1999/xlink" x="0px" y="0px"
	 viewBox="0 0 28 28" style="enable-background:new 0 0 28 28;" xml:space="preserve">
<style type="text/css">
	.st0{fill:#009E96;}
	.st1{fill:none;stroke:#FFFFFF;stroke-width:1.2809;stroke-miterlimit:10;}
	.st2{fill:none;stroke:#FFFFFF;stroke-width:1.2809;stroke-linecap:round;stroke-miterlimit:10;}
	.st3{fill:#40B6B0;}
	.st4{fill:#80CFCB;}
	.st5{fill:#BFE7E5;}
	.st6{fill:#FFFFFF;}
	.st7{fill:none;stroke:#009E96;stroke-width:0.5;stroke-miterlimit:10;}
	.st8{fill:none;stroke:#009E96;stroke-linecap:round;stroke-miterlimit:10;}
</style>
<g>
	<g>
		<g>
			<path class="st0" d="M16.9,8.8c4.3,1.4,4.3,9.1,0,10.5C19.9,16.7,19.9,11.3,16.9,8.8L16.9,8.8z"/>
		</g>
		<g>
			<path class="st3" d="M18.2,7.4c5.2,2,5.2,11.3,0,13.3C22.1,17.7,22.1,10.3,18.2,7.4L18.2,7.4z"/>
		</g>
		<g>
			<path class="st4" d="M19.4,6c6.2,2.5,6.2,13.6,0,16.1C24.3,18.6,24.3,9.4,19.4,6L19.4,6z"/>
		</g>
		<g>
			<path class="st5" d="M20.6,4.6c7.1,3,7.1,15.9,0,18.9c1.6-1,2.6-2.5,3.3-4.2C25.8,14.4,25.2,7.7,20.6,4.6L20.6,4.6z"/>
		</g>
		<g>
			<path class="st6" d="M21.8,3.2C29,6.4,29.6,17.7,24.5,23c-0.8,0.8-1.7,1.4-2.7,1.8c0.9-0.6,1.7-1.3,2.3-2.1
				C28.3,17.2,27.9,7.2,21.8,3.2L21.8,3.2z"/>
		</g>
	</g>
	<g>
		<g>
			<path class="st0" d="M11.1,8.8c-3,2.5-3,8,0,10.5C6.8,17.8,6.8,10.2,11.1,8.8L11.1,8.8z"/>
		</g>
		<g>
			<path class="st3" d="M9.8,7.4c-3.9,2.9-3.9,10.3,0,13.3C4.6,18.7,4.6,9.3,9.8,7.4L9.8,7.4z"/>
		</g>
		<g>
			<path class="st4" d="M8.6,6C3.7,9.4,3.7,18.6,8.6,22C2.4,19.6,2.4,8.5,8.6,6L8.6,6z"/>
		</g>
		<g>
			<path class="st5" d="M7.4,4.6c-5.8,3.9-5.8,14.9,0,18.9C0.3,20.5,0.3,7.5,7.4,4.6L7.4,4.6z"/>
		</g>
		<g>
			<path class="st6" d="M6.2,3.2c-6.1,4.1-6.5,14-2.3,19.5c0.6,0.8,1.4,1.5,2.3,2.1c-1-0.4-1.9-1-2.7-1.8C-1.6,17.7-1,6.4,6.2,3.2
				L6.2,3.2z"/>
		</g>
	</g>
	<circle class="st0" cx="14" cy="14" r="2.8"/>
</g>
</svg>
