<?xml version="1.0" encoding="utf-8"?>
<!-- Generator: Adobe Illustrator 26.0.1, SVG Export Plug-In . SVG Version: 6.00 Build 0)  -->
<svg version="1.1" id="圖層_1" xmlns="http://www.w3.org/2000/svg" xmlns:xlink="http://www.w3.org/1999/xlink" x="0px" y="0px"
	 viewBox="0 0 28 28" style="enable-background:new 0 0 28 28;" xml:space="preserve">
<style type="text/css">
	.st0{fill:#009E96;}
	.st1{fill:none;stroke:#FFFFFF;stroke-width:1.2809;stroke-miterlimit:10;}
	.st2{fill:none;stroke:#FFFFFF;stroke-width:1.2809;stroke-linecap:round;stroke-miterlimit:10;}
	.st3{fill:#40B6B0;}
	.st4{fill:#80CFCB;}
	.st5{fill:#BFE7E5;}
	.st6{fill:#FFFFFF;}
	.st7{fill:none;stroke:#009E96;stroke-width:0.5;stroke-miterlimit:10;}
	.st8{fill:none;stroke:#009E96;stroke-linecap:round;stroke-miterlimit:10;}
</style>
<g>
	<path class="st7" d="M15.2,26.7c-2.7,0-4.9-2.2-4.9-4.9c0-1.4,0.6-2.7,1.7-3.7V4.5c0-1.8,1.4-3.2,3.2-3.2s3.2,1.4,3.2,3.2v13.7
		c1,0.9,1.7,2.2,1.7,3.7C20,24.5,17.8,26.7,15.2,26.7z"/>
	<path class="st0" d="M17.3,18.7v-5.4c0-1.2-0.9-1.4-2.1-1.4s-2.1,0.3-2.1,1.4v5.4c-1,0.7-1.7,1.8-1.7,3.1c0,2.1,1.7,3.8,3.8,3.8
		s3.8-1.7,3.8-3.8C18.9,20.5,18.3,19.4,17.3,18.7z"/>
	<path class="st0" d="M17.3,10.1h-2.4c-0.1,0-0.2-0.1-0.2-0.2v0c0-0.1,0.1-0.2,0.2-0.2h2.4V10.1z"/>
	<path class="st0" d="M17.3,4.1h-2.4c-0.1,0-0.2-0.1-0.2-0.2v0c0-0.1,0.1-0.2,0.2-0.2h2.4V4.1z"/>
	<path class="st0" d="M17.3,7.1H14c-0.1,0-0.2-0.1-0.2-0.2v0c0-0.1,0.1-0.2,0.2-0.2h3.3V7.1z"/>
	<g>
		<g>
			<line class="st8" x1="8" y1="12.4" x2="8" y2="15.8"/>
			<g>
				<polygon class="st0" points="6.4,15.3 8,18.1 9.6,15.3 				"/>
			</g>
		</g>
	</g>
	<g>
		<line class="st0" x1="8" y1="8.1" x2="8" y2="2.4"/>
		<g>
			<line class="st8" x1="8" y1="8.1" x2="8" y2="4.7"/>
			<g>
				<polygon class="st0" points="9.6,5.2 8,2.4 6.4,5.2 				"/>
			</g>
		</g>
	</g>
</g>
</svg>
